<svg xmlns="http://www.w3.org/2000/svg" xmlns:xlink="http://www.w3.org/1999/xlink" version="1.1" x="0px" y="0px" viewBox="0 0 512 640" enable-background="new 0 0 512 512" xml:space="preserve"><path d="M499.676,227.444v-0.031L283.75,11.5c-15.344-15.328-40.186-15.328-55.498,0  c-15.343,15.327-15.343,40.186,0,55.513l149.711,149.713H39.261c-21.687,0-39.249,17.578-39.249,39.249  c0,21.679,17.563,39.24,39.249,39.24h338.702L228.189,444.991c-15.344,15.312-15.344,40.186,0,55.498  c15.344,15.343,40.186,15.343,55.498,0l215.896-215.867v-0.031c7.624-7.188,12.405-17.336,12.405-28.616  C511.988,244.741,507.238,234.601,499.676,227.444z"/></svg>